<mxfile host="app.diagrams.net" modified="2022-12-09T06:33:19.200Z" agent="5.0 (Windows NT 10.0; Win64; x64) AppleWebKit/537.36 (KHTML, like Gecko) Chrome/107.0.0.0 Safari/537.36" etag="QqKGA_kUGd-AKAc7lQE5" version="20.6.2" type="github">
  <diagram id="mlSVcmW4COpmMg7MvG-i" name="第 1 页">
    <mxGraphModel dx="1422" dy="706" grid="1" gridSize="10" guides="1" tooltips="1" connect="1" arrows="1" fold="1" page="1" pageScale="1" pageWidth="827" pageHeight="1169" math="0" shadow="0">
      <root>
        <mxCell id="0" />
        <mxCell id="1" parent="0" />
        <mxCell id="v9YNbQ3eZTfVc4xbVvDG-4" style="edgeStyle=orthogonalEdgeStyle;rounded=0;orthogonalLoop=1;jettySize=auto;html=1;exitX=0.25;exitY=1;exitDx=0;exitDy=0;entryX=0.25;entryY=0;entryDx=0;entryDy=0;" parent="1" source="v9YNbQ3eZTfVc4xbVvDG-1" target="v9YNbQ3eZTfVc4xbVvDG-2" edge="1">
          <mxGeometry relative="1" as="geometry" />
        </mxCell>
        <mxCell id="v9YNbQ3eZTfVc4xbVvDG-5" style="edgeStyle=orthogonalEdgeStyle;rounded=0;orthogonalLoop=1;jettySize=auto;html=1;exitX=0.75;exitY=1;exitDx=0;exitDy=0;entryX=0.75;entryY=0;entryDx=0;entryDy=0;" parent="1" source="v9YNbQ3eZTfVc4xbVvDG-1" target="v9YNbQ3eZTfVc4xbVvDG-2" edge="1">
          <mxGeometry relative="1" as="geometry" />
        </mxCell>
        <mxCell id="v9YNbQ3eZTfVc4xbVvDG-1" value="application" style="rounded=1;whiteSpace=wrap;html=1;" parent="1" vertex="1">
          <mxGeometry x="80" y="80" width="170" height="60" as="geometry" />
        </mxCell>
        <mxCell id="v9YNbQ3eZTfVc4xbVvDG-2" value="" style="rounded=1;whiteSpace=wrap;html=1;" parent="1" vertex="1">
          <mxGeometry x="80" y="180" width="170" height="180" as="geometry" />
        </mxCell>
        <mxCell id="v9YNbQ3eZTfVc4xbVvDG-6" value="" style="rounded=1;whiteSpace=wrap;html=1;" parent="1" vertex="1">
          <mxGeometry x="260" y="80" width="170" height="280" as="geometry" />
        </mxCell>
        <mxCell id="v9YNbQ3eZTfVc4xbVvDG-3" value="v8" style="text;html=1;align=center;verticalAlign=middle;resizable=0;points=[];autosize=1;strokeColor=none;fillColor=none;" parent="1" vertex="1">
          <mxGeometry x="140" y="270" width="40" height="30" as="geometry" />
        </mxCell>
        <mxCell id="v9YNbQ3eZTfVc4xbVvDG-7" value="&lt;font style=&quot;font-size: 16px;&quot;&gt;node.js&lt;br&gt;bindings&lt;br&gt;(node api)&lt;/font&gt;" style="text;html=1;align=center;verticalAlign=middle;resizable=0;points=[];autosize=1;strokeColor=none;fillColor=none;" parent="1" vertex="1">
          <mxGeometry x="305" y="95" width="100" height="70" as="geometry" />
        </mxCell>
        <mxCell id="v9YNbQ3eZTfVc4xbVvDG-8" value="os&lt;br&gt;operation" style="text;html=1;align=center;verticalAlign=middle;resizable=0;points=[];autosize=1;strokeColor=none;fillColor=none;fontSize=16;" parent="1" vertex="1">
          <mxGeometry x="310" y="240" width="90" height="50" as="geometry" />
        </mxCell>
        <mxCell id="v9YNbQ3eZTfVc4xbVvDG-11" value="" style="rounded=1;whiteSpace=wrap;html=1;fontSize=16;" parent="1" vertex="1">
          <mxGeometry x="445" y="90" width="370" height="280" as="geometry" />
        </mxCell>
        <mxCell id="v9YNbQ3eZTfVc4xbVvDG-12" value="&lt;font style=&quot;font-size: 20px;&quot;&gt;LIBUV&lt;br&gt;(asynchronous APi)&lt;br&gt;&lt;/font&gt;" style="text;html=1;align=center;verticalAlign=middle;resizable=0;points=[];autosize=1;strokeColor=none;fillColor=none;fontSize=16;" parent="1" vertex="1">
          <mxGeometry x="520" y="95" width="200" height="60" as="geometry" />
        </mxCell>
        <mxCell id="v9YNbQ3eZTfVc4xbVvDG-16" value="" style="endArrow=classic;html=1;rounded=0;fontSize=20;exitX=1;exitY=0.25;exitDx=0;exitDy=0;entryX=-0.005;entryY=0.471;entryDx=0;entryDy=0;entryPerimeter=0;" parent="1" source="v9YNbQ3eZTfVc4xbVvDG-2" target="v9YNbQ3eZTfVc4xbVvDG-11" edge="1">
          <mxGeometry width="50" height="50" relative="1" as="geometry">
            <mxPoint x="390" y="240" as="sourcePoint" />
            <mxPoint x="440" y="190" as="targetPoint" />
          </mxGeometry>
        </mxCell>
        <mxCell id="v9YNbQ3eZTfVc4xbVvDG-17" value="" style="endArrow=classic;html=1;rounded=0;fontSize=20;exitX=1;exitY=0.25;exitDx=0;exitDy=0;entryX=-0.005;entryY=0.471;entryDx=0;entryDy=0;entryPerimeter=0;" parent="1" edge="1">
          <mxGeometry width="50" height="50" relative="1" as="geometry">
            <mxPoint x="250" y="303.12" as="sourcePoint" />
            <mxPoint x="448.1500000000001" y="300" as="targetPoint" />
          </mxGeometry>
        </mxCell>
        <mxCell id="v9YNbQ3eZTfVc4xbVvDG-18" value="" style="rounded=1;whiteSpace=wrap;html=1;fontSize=20;" parent="1" vertex="1">
          <mxGeometry x="460" y="155" width="80" height="205" as="geometry" />
        </mxCell>
        <mxCell id="v9YNbQ3eZTfVc4xbVvDG-19" value="" style="rounded=1;whiteSpace=wrap;html=1;fontSize=20;" parent="1" vertex="1">
          <mxGeometry x="720" y="155" width="80" height="205" as="geometry" />
        </mxCell>
        <mxCell id="v9YNbQ3eZTfVc4xbVvDG-20" value="event loop" style="ellipse;shape=umlControl;whiteSpace=wrap;html=1;fontSize=20;" parent="1" vertex="1">
          <mxGeometry x="570" y="200" width="120" height="125" as="geometry" />
        </mxCell>
        <mxCell id="v9YNbQ3eZTfVc4xbVvDG-21" value="event&lt;br&gt;queue" style="text;html=1;align=center;verticalAlign=middle;resizable=0;points=[];autosize=1;strokeColor=none;fillColor=none;fontSize=20;" parent="1" vertex="1">
          <mxGeometry x="460" y="155" width="80" height="60" as="geometry" />
        </mxCell>
        <mxCell id="v9YNbQ3eZTfVc4xbVvDG-22" value="worker&lt;br&gt;threads&lt;br&gt;" style="text;html=1;align=center;verticalAlign=middle;resizable=0;points=[];autosize=1;strokeColor=none;fillColor=none;fontSize=20;" parent="1" vertex="1">
          <mxGeometry x="715" y="160" width="90" height="60" as="geometry" />
        </mxCell>
        <mxCell id="v9YNbQ3eZTfVc4xbVvDG-23" value="&lt;font style=&quot;font-size: 12px;&quot;&gt;libuv 内部会去线程池中实现功能，将要执行的方法添加到event queue中&lt;/font&gt;" style="text;html=1;align=center;verticalAlign=middle;resizable=0;points=[];autosize=1;strokeColor=#d79b00;fillColor=#ffe6cc;fontSize=20;" parent="1" vertex="1">
          <mxGeometry x="400" y="380" width="410" height="40" as="geometry" />
        </mxCell>
        <mxCell id="s7GfL3N6KG_oWAZx7mNv-1" value="线程池中，同步io实现了异步io" style="text;html=1;align=center;verticalAlign=middle;resizable=0;points=[];autosize=1;strokeColor=#82b366;fillColor=#d5e8d4;" vertex="1" parent="1">
          <mxGeometry x="465" y="445" width="190" height="30" as="geometry" />
        </mxCell>
      </root>
    </mxGraphModel>
  </diagram>
</mxfile>
